<?xml version="1.0" encoding="iso-8859-1"?>
<!-- Generator: Adobe Illustrator 19.0.0, SVG Export Plug-In . SVG Version: 6.00 Build 0)  -->
<svg version="1.1" id="Capa_1" xmlns="http://www.w3.org/2000/svg" xmlns:xlink="http://www.w3.org/1999/xlink" x="0px" y="0px"
	 viewBox="0 0 384 384" style="enable-background:new 0 0 384 384;" xml:space="preserve">
<g>
	<g>
		<path d="M320,0H64C46.328,0,32,14.326,32,32c0,149.195,0,106.399,0,256l96,96c76.562,0,115.381,0,192,0c17.672,0,32-14.327,32-32
			V32C352,14.326,337.672,0,320,0z M128,361.372C82.982,316.355,99.633,333.006,54.629,288H112c8.822,0,16,7.178,16,16V361.372z
			 M336,352c0,8.822-7.178,16-16,16H144v-64c0-17.674-14.326-32-32-32H48V32c0-8.822,7.178-16,16-16h256c8.822,0,16,7.178,16,16V352
			z"/>
	</g>
</g>
<g>
	<g>
		<rect x="160" y="96.16" width="128" height="16"/>
	</g>
</g>
<g>
	<g>
		<circle cx="112.16" cy="104" r="12"/>
	</g>
</g>
<g>
	<g>
		<rect x="160" y="160.16" width="128" height="16"/>
	</g>
</g>
<g>
	<g>
		<circle cx="112.16" cy="168" r="12"/>
	</g>
</g>
<g>
	<g>
		<rect x="160" y="224.16" width="128" height="16"/>
	</g>
</g>
<g>
	<g>
		<circle cx="112.16" cy="232" r="12"/>
	</g>
</g>
<g>
</g>
<g>
</g>
<g>
</g>
<g>
</g>
<g>
</g>
<g>
</g>
<g>
</g>
<g>
</g>
<g>
</g>
<g>
</g>
<g>
</g>
<g>
</g>
<g>
</g>
<g>
</g>
<g>
</g>
</svg>
